inDegrees=no
num_controls=7
num_derivatives=13
num_iterations=244
num_multipliers=7
num_parameters=0
num_slacks=7
num_states=26
objective=6.354563
objective_accelerations=0.578201
objective_balance=0.067256
objective_effort=0.507857
objective_height=5.152883
objective_ligament=0.048366
solver_duration=2078.657524
status=Solve_Succeeded
success=true
DataType=double
version=3
OpenSimVersion=4.4-2022-07-23-0e9fedc
endheader
time	/jointset/ground_pelvis/pelvis_tilt/value	/jointset/ground_pelvis/pelvis_tx/value	/jointset/ground_pelvis/pelvis_ty/value	/jointset/hip_r/hip_flexion_r/value	/jointset/hip_r/hip_adduction_r/value	/jointset/hip_r/hip_rotation_r/value	/jointset/back/lumbar_extension/value	/jointset/patellofemoral_r/patellar_flexion_r/value	/jointset/knee_r/knee_flexion_r/value	/jointset/knee_r/knee_adduction_r/value	/jointset/knee_r/knee_rotation_r/value	/jointset/ankle_r/ankle_angle_r/value	/jointset/subtalar_r/subtalar_angle_r/value	/jointset/ground_pelvis/pelvis_tilt/speed	/jointset/ground_pelvis/pelvis_tx/speed	/jointset/ground_pelvis/pelvis_ty/speed	/jointset/hip_r/hip_flexion_r/speed	/jointset/hip_r/hip_adduction_r/speed	/jointset/hip_r/hip_rotation_r/speed	/jointset/back/lumbar_extension/speed	/jointset/patellofemoral_r/patellar_flexion_r/speed	/jointset/knee_r/knee_flexion_r/speed	/jointset/knee_r/knee_adduction_r/speed	/jointset/knee_r/knee_rotation_r/speed	/jointset/ankle_r/ankle_angle_r/speed	/jointset/subtalar_r/subtalar_angle_r/speed	/forceset/tau_hip_flexion_r	/forceset/tau_hip_adduction_r	/forceset/tau_hip_rotation_r	/forceset/tau_knee_flexion_r	/forceset/tau_ankle_angle_r	/forceset/tau_subtalar_angle_r	/forceset/tau_lumbar_extension	lambda_cid13_p0	lambda_cid14_p0	lambda_cid14_p1	lambda_cid14_p2	lambda_cid14_p3	lambda_cid14_p4	lambda_cid14_p5	/jointset/ground_pelvis/pelvis_tilt/accel	/jointset/ground_pelvis/pelvis_tx/accel	/jointset/ground_pelvis/pelvis_ty/accel	/jointset/hip_r/hip_flexion_r/accel	/jointset/hip_r/hip_adduction_r/accel	/jointset/hip_r/hip_rotation_r/accel	/jointset/back/lumbar_extension/accel	/jointset/patellofemoral_r/patellar_flexion_r/accel	/jointset/knee_r/knee_flexion_r/accel	/jointset/knee_r/knee_adduction_r/accel	/jointset/knee_r/knee_rotation_r/accel	/jointset/ankle_r/ankle_angle_r/accel	/jointset/subtalar_r/subtalar_angle_r/accel	gamma_cid13_p0	gamma_cid14_p0	gamma_cid14_p1	gamma_cid14_p2	gamma_cid14_p3	gamma_cid14_p4	gamma_cid14_p5
1.5	-0.1706529740890513	0.0417511205424802	0.8434377251327597	0.8211096868099426	-0.2420622646067632	-0.1038008312730822	-0.2891150760733439	0.7493059728900032	0.7493059728900009	0.06642883794244657	0.1745325590171174	0.267442403498102	0.04115514341631311	0.3974643306369361	0.1649730354534019	0.4404389695661129	-1.881449796952745	0.03278905757002275	-0.4136101449994407	0.700810229262697	-2.014921851297275	-2.01492185129727	0.1904543714136255	2.455588166085093e-06	-0.6225917423076823	-0.1195754236882858	-0.1063042218434487	-0.01740100150923518	0.01300944748637518	-0.3267575226607036	0.05175662331339556	-0.008688573897044857	0.1489421288194613	-28.46904709968092	-24.37202964587654	-4.032150564537636	-3.476053883525501	3.535517814996106	-653.0112539530368	57.86118931729695	0.1994253838583855	0.3651632294559202	-0.5693443801449862	-0.8931444370845295	0.1364930490280465	-0.401369401638607	1.399445243955562	-1.235644824251067	-1.235644824251078	0.4647550291249254	-0.03140360649347412	-0.6339040792506903	0.08167503724856837	1.706574374905963e-07	1.130214047894586e-07	-1.667876546888139e-06	8.891026500419625e-07	1.118004516410615e-07	2.225391059204378e-07	-1.196018801093914e-06
1.51	-0.1666686605019144	0.04341887729385419	0.8478127346136939	0.8022525334908829	-0.2417283625696725	-0.1079574443773934	-0.2820383598762273	0.7290975651630702	0.7290975651630697	0.06835783620647812	0.1745326067858334	0.2611853605821768	0.03996249684398601	0.39933928011175	0.1685506518647888	0.4344685966142107	-1.889716139292851	0.03399106700218438	-0.417683612201741	0.7144238373484296	-2.026468776037406	-2.0264687760374	0.1953425064731368	3.041672982746137e-06	-0.628723681508328	-0.1189334468143586	-0.09950571892533319	-0.01917563603361178	0.01249984110008373	-0.323251640953877	0.05546062501225101	-0.009907659959111852	0.142812048341963	-29.66426784688392	-23.01584562468724	-4.228081370839839	-3.554540851354859	3.120672324326981	-648.8028846873177	57.64965944828909	0.1726739369991138	0.3499351580867294	-0.6249807696415693	-0.7536562523786916	0.1119999258915733	-0.4057535940179707	1.325942669031717	-1.07061564452986	-1.070615644529647	0.5001996904404918	0.01533587670848001	-0.5888232231236338	0.05834712293629223	1.802996863419452e-07	1.194316076522194e-07	-1.78265605446973e-06	9.268186946205842e-07	1.164022314835629e-07	2.488606452434065e-07	-1.27172295754693e-06
1.52	-0.1626673685784882	0.04512158507156341	0.8521252209617233	0.7833206613244412	-0.2413824514311435	-0.1121538757966267	-0.2748287827826235	0.7087824083196108	0.7087824083196097	0.07033558721032307	0.1745325696475496	0.2548698013977148	0.03877684766249249	0.4008599978948119	0.1719632407204452	0.427934342985178	-1.896393566429159	0.03519087785760155	-0.4215738079837301	0.7273824085601465	-2.036271674602963	-2.036271674602956	0.2002049193756985	-1.452581263008502e-05	-0.6342949960150581	-0.1181759455215718	-0.09270721600721601	-0.02095027055799357	0.01199023471376271	-0.3197457592470484	0.05916462671110517	-0.01112674602118558	0.1366819678644667	-30.84427031559314	-21.66300912738408	-4.419621728215028	-3.639412703793113	2.697242742070078	-644.6554681351038	57.50455583437909	0.1285790455079645	0.3321577183098186	-0.6821205155710819	-0.5753613963251013	0.136053333679157	-0.3647151175763602	1.2684378691524	-0.8868395893362777	-0.8868395893362769	0.4596105977349977	-0.03503432057937079	-0.5217791404675362	0.1047799210204734	1.892016597178203e-07	1.187356972058513e-07	-1.905237896354212e-06	9.395319263568624e-07	1.284887921449099e-07	2.575569878858229e-07	-1.341193162908434e-06
1.53	-0.1586527194383106	0.0468575460070376	0.8563695961844359	0.7643301164042448	-0.241024595064852	-0.1163885408268112	-0.267492947213144	0.6883781094273821	0.6883781094273792	0.0723617449639542	0.174532505012683	0.2485013943930546	0.03759932328565414	0.4020103198075559	0.1751959855218866	0.4208536681901626	-1.901443032101894	0.03637879518036085	-0.425326752624782	0.7396593809137524	-2.044284879712804	-2.044284879712796	0.205022122738104	-2.283145497749819e-06	-0.6392876973797157	-0.1173097390759437	-0.08583570298291979	-0.02284414306421795	0.01144406561233372	-0.3164789048078211	0.06305543150161727	-0.01249269411596431	0.1305007144058355	-32.00714065881367	-20.27191881210574	-4.675023635688221	-3.706361454644544	2.284270225065285	-640.7391594341367	57.28933295135877	0.09934164240229865	0.3139205844070994	-0.7340475351966068	-0.4288692487148987	0.1098733608343331	-0.3754524846601508	1.188528255143858	-0.713117684622855	-0.7131176846228102	0.4918342241751552	0.01892274995160267	-0.4731637947781356	0.0801965320641226	1.973170904010045e-07	1.104895413685338e-07	-2.036109718435514e-06	9.256796694481511e-07	1.485279324262803e-07	2.475265590551528e-07	-1.404039795235206e-06
